<svg xmlns="http://www.w3.org/2000/svg" xmlns:xlink="http://www.w3.org/1999/xlink" width="108.914" height="108.914" viewBox="0 0 108.914 108.914">
  <defs>
    <filter id="Trazado_874925" x="0" y="0" width="108.914" height="108.914" filterUnits="userSpaceOnUse">
      <feOffset dy="3" input="SourceAlpha"/>
      <feGaussianBlur stdDeviation="3" result="blur"/>
      <feFlood flood-opacity="0.161"/>
      <feComposite operator="in" in2="blur"/>
      <feComposite in="SourceGraphic"/>
    </filter>
  </defs>
  <g id="Grupo_1109857" data-name="Grupo 1109857" transform="translate(-798.427 -2511.157)">
    <g id="Grupo_1109818" data-name="Grupo 1109818" transform="translate(807.427 2517.157)">
      <g transform="matrix(1, 0, 0, 1, -9, -6)" filter="url(#Trazado_874925)">
        <g id="Trazado_874925-2" data-name="Trazado 874925" transform="translate(9 6)" fill="#efdb59" opacity="0.859">
          <path d="M 45.45676803588867 89.41407012939453 C 39.52198028564453 89.41407012939453 33.76551818847656 88.25206756591797 28.34726715087891 85.96034240722656 C 23.11311721801758 83.74648284912109 18.41204261779785 80.57682800292969 14.37464332580566 76.5394287109375 C 10.33724308013916 72.50202941894531 7.167593002319336 67.80095672607422 4.953730583190918 62.56679534912109 C 2.662005424499512 57.14855575561523 1.500005483627319 51.39208221435547 1.500005483627319 45.45729446411133 C 1.500005483627319 39.52198028564453 2.662005424499512 33.76551818847656 4.953730583190918 28.34726905822754 C 7.167593002319336 23.11310577392578 10.33724308013916 18.41203117370605 14.37464332580566 14.37464332580566 C 18.41204261779785 10.33724403381348 23.11311721801758 7.167593955993652 28.34726715087891 4.953731060028076 C 33.76551818847656 2.662006139755249 39.52198028564453 1.500006198883057 45.45676803588867 1.500006198883057 C 51.39155578613281 1.500006198883057 57.14802932739258 2.662006139755249 62.56626892089844 4.953731060028076 C 67.80043029785156 7.167593955993652 72.50150299072266 10.33724403381348 76.53890228271484 14.37464332580566 C 80.57630920410156 18.41203117370605 83.74595642089844 23.11310577392578 85.95981597900391 28.34726905822754 C 88.25154113769531 33.76551818847656 89.41354370117188 39.52198028564453 89.41354370117188 45.45676803588867 C 89.41354370117188 51.39208221435547 88.25154113769531 57.14855575561523 85.95981597900391 62.56679534912109 C 83.74595642089844 67.80095672607422 80.57630920410156 72.50202941894531 76.53890228271484 76.5394287109375 C 72.50150299072266 80.57682800292969 67.80043029785156 83.74648284912109 62.56626892089844 85.96034240722656 C 57.14802932739258 88.25206756591797 51.39155578613281 89.41407012939453 45.45676803588867 89.41407012939453 Z" stroke="none"/>
          <path d="M 45.45676803588867 3 C 39.72381210327148 3 34.1639404296875 4.12213134765625 28.93159484863281 6.335227966308594 C 23.87622833251953 8.473472595214844 19.33542633056641 11.53517150878906 15.43529510498047 15.435302734375 C 11.53517150878906 19.33543395996094 8.473464965820312 23.87622833251953 6.335227966308594 28.93160247802734 C 4.122123718261719 34.16394424438477 3 39.72381591796875 3 45.4572868347168 C 3 51.19024658203125 4.122123718261719 56.75011825561523 6.335227966308594 61.98246002197266 C 8.473464965820312 67.03782653808594 11.53517150878906 71.57862854003906 15.43529510498047 75.478759765625 C 19.33542633056641 79.37889099121094 23.87622833251953 82.44058990478516 28.93159484863281 84.57883453369141 C 34.1639404296875 86.79193115234375 39.72381210327148 87.9140625 45.45676803588867 87.9140625 C 51.18972396850586 87.9140625 56.74959564208984 86.79193115234375 61.98194122314453 84.57883453369141 C 67.03730773925781 82.44058990478516 71.57810974121094 79.37889099121094 75.47824096679688 75.478759765625 C 79.37837219238281 71.57862854003906 82.44007110595703 67.03782653808594 84.57830810546875 61.98246002197266 C 86.79141235351562 56.75011825561523 87.91353607177734 51.19024658203125 87.91353607177734 45.4567756652832 C 87.91353607177734 39.72381591796875 86.79141235351562 34.16394424438477 84.57830810546875 28.93160247802734 C 82.44007110595703 23.87622833251953 79.37837219238281 19.33543395996094 75.47824096679688 15.435302734375 C 71.57810974121094 11.53517150878906 67.03730773925781 8.473472595214844 61.98194122314453 6.335227966308594 C 56.74959564208984 4.12213134765625 51.18972396850586 3 45.45676803588867 3 M 45.45676803588867 0 C 70.56185150146484 0 90.91353607177734 20.35169219970703 90.91353607177734 45.4567756652832 L 90.91353607177734 45.4572868347168 C 90.91353607177734 70.5623779296875 70.56185150146484 90.9140625 45.45676803588867 90.9140625 C 20.3516845703125 90.9140625 0 70.5623779296875 0 45.4572868347168 L 0 45.4567756652832 C 0 20.35169219970703 20.3516845703125 0 45.45676803588867 0 Z" stroke="none" fill="#fff"/>
        </g>
      </g>
      <g id="Trazado_874923" data-name="Trazado 874923" transform="translate(0 0)" fill="none">
        <path d="M45.457,0A45.457,45.457,0,0,1,90.914,45.457h0A45.457,45.457,0,0,1,0,45.457H0A45.457,45.457,0,0,1,45.457,0Z" stroke="none"/>
        <path d="M 45.45676803588867 3 C 39.72381210327148 3 34.1639404296875 4.12213134765625 28.93159484863281 6.335227966308594 C 23.87622833251953 8.473472595214844 19.33542633056641 11.53517150878906 15.43529510498047 15.435302734375 C 11.53517150878906 19.33543395996094 8.473464965820312 23.87622833251953 6.335227966308594 28.93160247802734 C 4.122123718261719 34.16394424438477 3 39.72381591796875 3 45.4572868347168 C 3 51.19024658203125 4.122123718261719 56.75011825561523 6.335227966308594 61.98246002197266 C 8.473464965820312 67.03782653808594 11.53517150878906 71.57862854003906 15.43529510498047 75.478759765625 C 19.33542633056641 79.37889099121094 23.87622833251953 82.44058990478516 28.93159484863281 84.57883453369141 C 34.1639404296875 86.79193115234375 39.72381210327148 87.9140625 45.45676803588867 87.9140625 C 51.18972396850586 87.9140625 56.74959564208984 86.79193115234375 61.98194122314453 84.57883453369141 C 67.03730773925781 82.44058990478516 71.57810974121094 79.37889099121094 75.47824096679688 75.478759765625 C 79.37837219238281 71.57862854003906 82.44007110595703 67.03782653808594 84.57830810546875 61.98246002197266 C 86.79141235351562 56.75011825561523 87.91353607177734 51.19024658203125 87.91353607177734 45.4567756652832 C 87.91353607177734 39.72381591796875 86.79141235351562 34.16394424438477 84.57830810546875 28.93160247802734 C 82.44007110595703 23.87622833251953 79.37837219238281 19.33543395996094 75.47824096679688 15.435302734375 C 71.57810974121094 11.53517150878906 67.03730773925781 8.473472595214844 61.98194122314453 6.335227966308594 C 56.74959564208984 4.12213134765625 51.18972396850586 3 45.45676803588867 3 M 45.45676803588867 0 C 70.56185150146484 0 90.91353607177734 20.35169219970703 90.91353607177734 45.4567756652832 L 90.91353607177734 45.4572868347168 C 90.91353607177734 70.5623779296875 70.56185150146484 90.9140625 45.45676803588867 90.9140625 C 20.3516845703125 90.9140625 0 70.5623779296875 0 45.4572868347168 L 0 45.4567756652832 C 0 20.35169219970703 20.3516845703125 0 45.45676803588867 0 Z" stroke="none" fill="#fff"/>
      </g>
    </g>
    <g id="Grupo_1110036" data-name="Grupo 1110036" transform="translate(822.434 2531.897)">
      <g id="Grupo_1110034" data-name="Grupo 1110034" transform="translate(0.893 1.163)">
        <g id="Grupo_1110033" data-name="Grupo 1110033" transform="translate(0 0)">
          <circle id="Elipse_11705" data-name="Elipse 11705" cx="5.511" cy="5.511" r="5.511" transform="translate(32.419 30.901)" fill="#f2f2f2"/>
          <path id="Trazado_898123" data-name="Trazado 898123" d="M308.777,267.328a5.489,5.489,0,0,0-2.379.539,5.513,5.513,0,0,1,0,9.945,5.511,5.511,0,1,0,2.379-10.483Z" transform="translate(-270.847 -236.427)" fill="#e6e6e6"/>
          <path id="Trazado_898124" data-name="Trazado 898124" d="M51.671,82.162A37.653,37.653,0,0,1,47.9,74.985a41.876,41.876,0,0,1-2.589-22.074,12.766,12.766,0,0,1,2.358-5.371,6.61,6.61,0,0,1,4.593-2.754c.208-.021.418-.031.625-.031,3.189,0,5.913,2.5,8.549,4.917a30.756,30.756,0,0,0,4.17,3.416c2.613,1.649,7.708,3.053,9.778,3.581a1.189,1.189,0,0,1,.895,1.164,103.636,103.636,0,0,0,.571,12.1,6.953,6.953,0,0,0-5.235,8.745v0s-8.22,7.453-18.64,4.428a2.375,2.375,0,0,1-1.306-.947Z" transform="translate(-40.364 -40.328)" fill="#d82e3d"/>
          <path id="Trazado_898125" data-name="Trazado 898125" d="M180.579,365.374c-2.754,1.847-6.888,2.371-10.043,2.371a25.143,25.143,0,0,1-8.63-1.556,28.255,28.255,0,0,1-7.614-4.206,1.19,1.19,0,0,1,.706-2.129,24.055,24.055,0,0,0,14.365-5.523,6.963,6.963,0,0,0,8.023,1.426,79.689,79.689,0,0,1,3.662,8.229A1.193,1.193,0,0,1,180.579,365.374Z" transform="translate(-136.425 -313.082)" fill="#d82e3d"/>
          <g id="Grupo_1110032" data-name="Grupo 1110032" transform="translate(31.839 42.676)">
            <path id="Trazado_898126" data-name="Trazado 898126" d="M287.971,374.553a79.711,79.711,0,0,0-3.662-8.229,6.982,6.982,0,0,1-4.486.535,75.94,75.94,0,0,1,3.39,7.694,1.193,1.193,0,0,1-.468,1.387,16.578,16.578,0,0,1-7.558,2.263q1.134.107,2.273.108c3.155,0,7.289-.525,10.043-2.371A1.192,1.192,0,0,0,287.971,374.553Z" transform="translate(-275.188 -366.324)" fill="#c10a54"/>
          </g>
          <path id="Trazado_898127" data-name="Trazado 898127" d="M352.351,181.938a19.376,19.376,0,0,1-4.445,6.406,1.191,1.191,0,0,1-1.91-.368c-1.728-3.832-3.532-7.963-3.532-7.963a6.952,6.952,0,0,0-.5-9.093,7.552,7.552,0,0,0-3.183-1.909c-.36-3.794-.4-8.318-.4-10.684a1.188,1.188,0,0,1,1.6-1.11,21.94,21.94,0,0,1,11.957,10.64A16.829,16.829,0,0,1,352.351,181.938Z" transform="translate(-299.024 -139.345)" fill="#d82e3d"/>
          <path id="Trazado_898128" data-name="Trazado 898128" d="M351.938,167.854a21.94,21.94,0,0,0-11.957-10.64,1.188,1.188,0,0,0-1.6,1.11c0,.115,0,.236,0,.361a21.551,21.551,0,0,1,8.8,9.169,16.828,16.828,0,0,1,.413,14.083,19.474,19.474,0,0,1-2.437,4.167c.276.619.559,1.248.839,1.87a1.191,1.191,0,0,0,1.91.368,19.376,19.376,0,0,0,4.445-6.406,16.829,16.829,0,0,0-.413-14.083Z" transform="translate(-299.024 -139.344)" fill="#c10a54"/>
          <path id="Trazado_898129" data-name="Trazado 898129" d="M64.41,34.114A25.536,25.536,0,0,0,48.45,20.777c-1.366-.382-2.733-.7-4.056-1-3.387-.785-6.586-1.526-9.276-3.224a27.844,27.844,0,0,1-3.539-2.934c-2.986-2.739-6.37-5.843-11.025-6.072a10.761,10.761,0,0,0-1.587.04,11.016,11.016,0,0,0-7.649,4.437A17.267,17.267,0,0,0,8.1,19.28c-1.392,7.254-.311,16.657,2.823,24.541C13.775,51,19.652,60.458,31.455,64.793a29.592,29.592,0,0,0,8.762,1.794A26.644,26.644,0,0,0,54.808,63.2a23.761,23.761,0,0,0,10.1-11.331A21.193,21.193,0,0,0,64.41,34.114ZM45.617,40.349a3.6,3.6,0,1,1-2.677,1.007,3.58,3.58,0,0,1,2.677-1.007ZM18.812,49.366a37.653,37.653,0,0,1-3.767-7.177,41.876,41.876,0,0,1-2.589-22.074,12.766,12.766,0,0,1,2.358-5.371,6.61,6.61,0,0,1,4.593-2.754c.208-.021.418-.031.625-.031,3.189,0,5.913,2.5,8.549,4.917a30.756,30.756,0,0,0,4.17,3.416c2.613,1.649,7.708,3.053,9.778,3.581a1.189,1.189,0,0,1,.895,1.164,103.635,103.635,0,0,0,.571,12.1,6.953,6.953,0,0,0-5.235,8.745v0s-8.22,7.453-18.64,4.428a2.375,2.375,0,0,1-1.306-.947ZM51.658,59.823C48.9,61.67,44.77,62.194,41.615,62.194a25.143,25.143,0,0,1-8.63-1.556,28.254,28.254,0,0,1-7.614-4.206,1.19,1.19,0,0,1,.706-2.129A24.055,24.055,0,0,0,40.441,48.78a6.963,6.963,0,0,0,8.023,1.426,79.69,79.69,0,0,1,3.662,8.229,1.193,1.193,0,0,1-.468,1.387Zm9.173-9.7a19.375,19.375,0,0,1-4.445,6.406,1.191,1.191,0,0,1-1.91-.368c-1.728-3.832-3.532-7.963-3.532-7.963a6.952,6.952,0,0,0-.5-9.093A7.552,7.552,0,0,0,47.256,37.2c-.36-3.794-.4-8.318-.4-10.684a1.188,1.188,0,0,1,1.6-1.11,21.939,21.939,0,0,1,11.957,10.64,16.829,16.829,0,0,1,.413,14.083Z" transform="translate(-7.504 -7.531)" fill="#ffd8d5"/>
        </g>
      </g>
      <g id="Grupo_1110035" data-name="Grupo 1110035" transform="translate(0 0.303)">
        <path id="Trazado_898130" data-name="Trazado 898130" d="M69.014,48.911c-2.028-.517-7.017-1.89-9.522-3.471-5.5-3.471-12.658-13.611-19.116-5.342a13.675,13.675,0,0,0-2.531,5.752c-1,5.2-.828,13.854,2.636,22.571a38.484,38.484,0,0,0,3.857,7.348,3.271,3.271,0,0,0,1.8,1.3,18.944,18.944,0,0,0,5.294.751,21.091,21.091,0,0,0,8.543-1.871,23.124,23.124,0,0,0,5.6-3.456.892.892,0,0,0,.312-.955,6.06,6.06,0,0,1,4.562-7.624.892.892,0,0,0,.7-.981,103.83,103.83,0,0,1-.564-11.989,2.078,2.078,0,0,0-1.567-2.036Zm-2.77,15.3a7.828,7.828,0,0,0-2.221,7.251,21.316,21.316,0,0,1-12.608,4.582,17.1,17.1,0,0,1-4.784-.682,1.483,1.483,0,0,1-.815-.59h0a36.7,36.7,0,0,1-3.677-7.007A40.937,40.937,0,0,1,39.6,46.186c.608-3.169,2.687-7.235,6.372-7.327,3.185-.079,6.087,2.571,8.273,4.577a31.374,31.374,0,0,0,4.3,3.513c2.72,1.717,7.923,3.153,10.034,3.691a.3.3,0,0,1,.223.292,110.3,110.3,0,0,0,.494,11.448A7.831,7.831,0,0,0,66.245,64.208Z" transform="translate(-32.878 -32.574)" fill="#060606"/>
        <path id="Trazado_898131" data-name="Trazado 898131" d="M58.6,27.359A26.441,26.441,0,0,0,42.079,13.55c-1.386-.387-2.763-.706-4.095-1.015-3.311-.767-6.438-1.492-9-3.109C24.826,6.8,22.1,2.508,17.24.906A11.9,11.9,0,0,0,4,5.1a17.818,17.818,0,0,0-3.08,6.3.892.892,0,0,0,1.723.464A16.021,16.021,0,0,1,5.409,6.2,10.084,10.084,0,0,1,16.955,2.7c4.508,1.615,7.155,5.755,11.076,8.23,2.818,1.779,6.088,2.536,9.551,3.338,1.313.3,2.67.618,4.017.995A24.631,24.631,0,0,1,56.994,28.131a20.312,20.312,0,0,1,.481,17.017,22.876,22.876,0,0,1-9.722,10.909,27.069,27.069,0,0,1-22.6,1.53C13.657,53.366,7.926,44.129,5.142,37.123a47.9,47.9,0,0,1-3.281-19.96A.893.893,0,0,0,.08,17.051a49.745,49.745,0,0,0,3.4,20.731c2.918,7.344,8.94,17.031,21.053,21.48a28.858,28.858,0,0,0,24.1-1.657A24.646,24.646,0,0,0,59.115,45.853,22.073,22.073,0,0,0,58.6,27.359Z" transform="translate(0 -0.303)" fill="#060606"/>
        <path id="Trazado_898132" data-name="Trazado 898132" d="M170.528,348.641a6.059,6.059,0,0,1-6.995-1.243,1.066,1.066,0,0,0-1.4.077,22.737,22.737,0,0,1-13.628,5.174,2.1,2.1,0,0,0-1.23,3.726,29.256,29.256,0,0,0,7.853,4.338,25.857,25.857,0,0,0,8.938,1.611c5.9,0,9.134-1.581,10.539-2.523a2.084,2.084,0,0,0,.812-2.426,79.543,79.543,0,0,0-3.711-8.342.892.892,0,0,0-1.18-.393Zm3.085,9.679c-2.989,2-7.671,2.22-9.546,2.22a24.417,24.417,0,0,1-8.323-1.5,27.476,27.476,0,0,1-7.375-4.074q-.288-.391.181-.532a24.472,24.472,0,0,0,14.293-5.243,7.838,7.838,0,0,0,7.65,1.395,74.243,74.243,0,0,1,3.244,7.387.3.3,0,0,1-.124.348Z" transform="translate(-129.063 -305.91)" fill="#060606"/>
        <path id="Trazado_898133" data-name="Trazado 898133" d="M290.042,277.178a4.489,4.489,0,0,0,2.9,7.711c.076,0,.152.006.228.006a4.49,4.49,0,1,0-3.127-7.717Zm5.822,3.271a2.7,2.7,0,0,1-4.961,1.445,2.707,2.707,0,0,1,2.256-4.194q.068,0,.137,0h0a2.7,2.7,0,0,1,2.568,2.746Z" transform="translate(-254.334 -243.134)" fill="#060606"/>
        <path id="Trazado_898134" data-name="Trazado 898134" d="M340.071,182.929a2.206,2.206,0,0,0,1.842-.539,20.213,20.213,0,0,0,4.649-6.7,17.709,17.709,0,0,0-.428-14.82,22.734,22.734,0,0,0-12.452-11.092,2.081,2.081,0,0,0-2.8,1.944c-.007,2.378.036,6.938.4,10.771a.892.892,0,0,0,.623.768,6.933,6.933,0,0,1,2.268,1.188.893.893,0,0,0,1.117-1.391,8.615,8.615,0,0,0-2.284-1.3c-.31-3.633-.347-7.8-.341-10.029a.3.3,0,0,1,.4-.277,20.912,20.912,0,0,1,11.462,10.189,15.948,15.948,0,0,1,.4,13.346,18.44,18.44,0,0,1-4.241,6.112.3.3,0,0,1-.481-.089c-1.37-3.039-2.8-6.3-3.324-7.488a7.8,7.8,0,0,0,1.095-6.256.893.893,0,0,0-1.732.429,6.025,6.025,0,0,1-1.089,5.171.892.892,0,0,0-.113.9c.018.041,1.826,4.179,3.537,7.973a2.083,2.083,0,0,0,1.5,1.186Z" transform="translate(-291.523 -131.886)" fill="#060606"/>
      </g>
    </g>
  </g>
</svg>
