<svg xmlns="http://www.w3.org/2000/svg" xmlns:xlink="http://www.w3.org/1999/xlink" width="108.914" height="108.914" viewBox="0 0 108.914 108.914">
  <defs>
    <filter id="Trazado_874925" x="0" y="0" width="108.914" height="108.914" filterUnits="userSpaceOnUse">
      <feOffset dy="3" input="SourceAlpha"/>
      <feGaussianBlur stdDeviation="3" result="blur"/>
      <feFlood flood-opacity="0.161"/>
      <feComposite operator="in" in2="blur"/>
      <feComposite in="SourceGraphic"/>
    </filter>
  </defs>
  <g id="Grupo_1109845" data-name="Grupo 1109845" transform="translate(-799.5 -1946.211)">
    <g id="Grupo_1107913" data-name="Grupo 1107913" transform="translate(808.5 1952.211)">
      <g transform="matrix(1, 0, 0, 1, -9, -6)" filter="url(#Trazado_874925)">
        <g id="Trazado_874925-2" data-name="Trazado 874925" transform="translate(9 6)" fill="#a9dcbe" opacity="0.859">
          <path d="M 45.45676803588867 89.41407012939453 C 39.52198028564453 89.41407012939453 33.76551818847656 88.25206756591797 28.34726715087891 85.96034240722656 C 23.11311721801758 83.74648284912109 18.41204261779785 80.57682800292969 14.37464332580566 76.5394287109375 C 10.33724308013916 72.50202941894531 7.167593002319336 67.80095672607422 4.953730583190918 62.56679534912109 C 2.662005424499512 57.14855575561523 1.500005483627319 51.39208221435547 1.500005483627319 45.45729446411133 C 1.500005483627319 39.52198028564453 2.662005424499512 33.76551818847656 4.953730583190918 28.34726905822754 C 7.167593002319336 23.11310577392578 10.33724308013916 18.41203117370605 14.37464332580566 14.37464332580566 C 18.41204261779785 10.33724403381348 23.11311721801758 7.167593955993652 28.34726715087891 4.953731060028076 C 33.76551818847656 2.662006139755249 39.52198028564453 1.500006198883057 45.45676803588867 1.500006198883057 C 51.39155578613281 1.500006198883057 57.14802932739258 2.662006139755249 62.56626892089844 4.953731060028076 C 67.80043029785156 7.167593955993652 72.50150299072266 10.33724403381348 76.53890228271484 14.37464332580566 C 80.57630920410156 18.41203117370605 83.74595642089844 23.11310577392578 85.95981597900391 28.34726905822754 C 88.25154113769531 33.76551818847656 89.41354370117188 39.52198028564453 89.41354370117188 45.45676803588867 C 89.41354370117188 51.39208221435547 88.25154113769531 57.14855575561523 85.95981597900391 62.56679534912109 C 83.74595642089844 67.80095672607422 80.57630920410156 72.50202941894531 76.53890228271484 76.5394287109375 C 72.50150299072266 80.57682800292969 67.80043029785156 83.74648284912109 62.56626892089844 85.96034240722656 C 57.14802932739258 88.25206756591797 51.39155578613281 89.41407012939453 45.45676803588867 89.41407012939453 Z" stroke="none"/>
          <path d="M 45.45676803588867 3 C 39.72381210327148 3 34.1639404296875 4.12213134765625 28.93159484863281 6.335227966308594 C 23.87622833251953 8.473472595214844 19.33542633056641 11.53517150878906 15.43529510498047 15.435302734375 C 11.53517150878906 19.33543395996094 8.473464965820312 23.87622833251953 6.335227966308594 28.93160247802734 C 4.122123718261719 34.16394424438477 3 39.72381591796875 3 45.4572868347168 C 3 51.19024658203125 4.122123718261719 56.75011825561523 6.335227966308594 61.98246002197266 C 8.473464965820312 67.03782653808594 11.53517150878906 71.57862854003906 15.43529510498047 75.478759765625 C 19.33542633056641 79.37889099121094 23.87622833251953 82.44058990478516 28.93159484863281 84.57883453369141 C 34.1639404296875 86.79193115234375 39.72381210327148 87.9140625 45.45676803588867 87.9140625 C 51.18972396850586 87.9140625 56.74959564208984 86.79193115234375 61.98194122314453 84.57883453369141 C 67.03730773925781 82.44058990478516 71.57810974121094 79.37889099121094 75.47824096679688 75.478759765625 C 79.37837219238281 71.57862854003906 82.44007110595703 67.03782653808594 84.57830810546875 61.98246002197266 C 86.79141235351562 56.75011825561523 87.91353607177734 51.19024658203125 87.91353607177734 45.4567756652832 C 87.91353607177734 39.72381591796875 86.79141235351562 34.16394424438477 84.57830810546875 28.93160247802734 C 82.44007110595703 23.87622833251953 79.37837219238281 19.33543395996094 75.47824096679688 15.435302734375 C 71.57810974121094 11.53517150878906 67.03730773925781 8.473472595214844 61.98194122314453 6.335227966308594 C 56.74959564208984 4.12213134765625 51.18972396850586 3 45.45676803588867 3 M 45.45676803588867 0 C 70.56185150146484 0 90.91353607177734 20.35169219970703 90.91353607177734 45.4567756652832 L 90.91353607177734 45.4572868347168 C 90.91353607177734 70.5623779296875 70.56185150146484 90.9140625 45.45676803588867 90.9140625 C 20.3516845703125 90.9140625 0 70.5623779296875 0 45.4572868347168 L 0 45.4567756652832 C 0 20.35169219970703 20.3516845703125 0 45.45676803588867 0 Z" stroke="none" fill="#fff"/>
        </g>
      </g>
      <g id="Trazado_874923" data-name="Trazado 874923" transform="translate(0 0)" fill="none">
        <path d="M45.457,0A45.457,45.457,0,0,1,90.914,45.457h0A45.457,45.457,0,0,1,0,45.457H0A45.457,45.457,0,0,1,45.457,0Z" stroke="none"/>
        <path d="M 45.45676803588867 3 C 39.72381210327148 3 34.1639404296875 4.12213134765625 28.93159484863281 6.335227966308594 C 23.87622833251953 8.473472595214844 19.33542633056641 11.53517150878906 15.43529510498047 15.435302734375 C 11.53517150878906 19.33543395996094 8.473464965820312 23.87622833251953 6.335227966308594 28.93160247802734 C 4.122123718261719 34.16394424438477 3 39.72381591796875 3 45.4572868347168 C 3 51.19024658203125 4.122123718261719 56.75011825561523 6.335227966308594 61.98246002197266 C 8.473464965820312 67.03782653808594 11.53517150878906 71.57862854003906 15.43529510498047 75.478759765625 C 19.33542633056641 79.37889099121094 23.87622833251953 82.44058990478516 28.93159484863281 84.57883453369141 C 34.1639404296875 86.79193115234375 39.72381210327148 87.9140625 45.45676803588867 87.9140625 C 51.18972396850586 87.9140625 56.74959564208984 86.79193115234375 61.98194122314453 84.57883453369141 C 67.03730773925781 82.44058990478516 71.57810974121094 79.37889099121094 75.47824096679688 75.478759765625 C 79.37837219238281 71.57862854003906 82.44007110595703 67.03782653808594 84.57830810546875 61.98246002197266 C 86.79141235351562 56.75011825561523 87.91353607177734 51.19024658203125 87.91353607177734 45.4567756652832 C 87.91353607177734 39.72381591796875 86.79141235351562 34.16394424438477 84.57830810546875 28.93160247802734 C 82.44007110595703 23.87622833251953 79.37837219238281 19.33543395996094 75.47824096679688 15.435302734375 C 71.57810974121094 11.53517150878906 67.03730773925781 8.473472595214844 61.98194122314453 6.335227966308594 C 56.74959564208984 4.12213134765625 51.18972396850586 3 45.45676803588867 3 M 45.45676803588867 0 C 70.56185150146484 0 90.91353607177734 20.35169219970703 90.91353607177734 45.4567756652832 L 90.91353607177734 45.4572868347168 C 90.91353607177734 70.5623779296875 70.56185150146484 90.9140625 45.45676803588867 90.9140625 C 20.3516845703125 90.9140625 0 70.5623779296875 0 45.4572868347168 L 0 45.4567756652832 C 0 20.35169219970703 20.3516845703125 0 45.45676803588867 0 Z" stroke="none" fill="#fff"/>
      </g>
    </g>
    <g id="carnicero_1_" data-name="carnicero (1)" transform="translate(829.215 1970.266)">
      <path id="Trazado_897977" data-name="Trazado 897977" d="M34.7,44.9V53.7H20.146v.856H18.177a1.452,1.452,0,0,1-1.028-.428,1.472,1.472,0,0,0-1.036-.428h-1.1V48.56H30.55a.727.727,0,0,0,.728-.728V39.98a12.937,12.937,0,0,1,1.944.839A12.714,12.714,0,0,0,34.7,44.9Z" transform="translate(-2.156 -5.746)" fill="#636a74"/>
      <path id="Trazado_897978" data-name="Trazado 897978" d="M55.643,41a9.041,9.041,0,0,0,.051-7.809,9.879,9.879,0,0,0-1.7-2.629,6.358,6.358,0,0,1-1.507-2.714c-.034-.137-.069-.283-.094-.437a8.029,8.029,0,0,1-.026-2.714,2.741,2.741,0,0,0-.617-2.235c-.051-.06-.111-.12-.18-.188-.009,0-.009-.009-.017-.017a2.752,2.752,0,0,0-2.432-.625c-.086.017-.171.034-.265.06a13.3,13.3,0,0,0-6.585,3.631,13.472,13.472,0,0,0-3.682,9.539,10.6,10.6,0,0,0,2.363,7.2,9.825,9.825,0,0,0,1.7,1.635,8.994,8.994,0,0,0,7.912,1.5A8.256,8.256,0,0,0,55.643,41Zm-17.922.891A12.714,12.714,0,0,1,36.239,37.8a13.117,13.117,0,0,1-.223-2.971A15.568,15.568,0,0,1,48.6,19.111a1.238,1.238,0,0,1,.248-.034A4.3,4.3,0,0,1,49.726,19,5.251,5.251,0,0,1,53.3,20.37c.154.154.274.274.385.4A5.266,5.266,0,0,1,54.9,25.088a5.635,5.635,0,0,0,.017,1.858c.026.1.043.206.069.3a3.882,3.882,0,0,0,.925,1.61,12.031,12.031,0,0,1,2.029,13.306,10.935,10.935,0,0,1-9.813,5.951,11.724,11.724,0,0,1-4.8-1.036,12.056,12.056,0,0,1-2.235-1.336,13.385,13.385,0,0,1-2.132-2.046,12.371,12.371,0,0,1-1.242-1.807Z" transform="translate(-5.174 -2.731)" fill="#f3445a"/>
      <path id="Trazado_897979" data-name="Trazado 897979" d="M48.566,5H34.009V8.425H58.824V5Z" transform="translate(-4.887 -0.719)" fill="#a05454"/>
      <path id="Trazado_897980" data-name="Trazado 897980" d="M31.278,39.979v7.852a.727.727,0,0,1-.728.728H15.009V41.965l4.281,3.168,2.577-2.586,3.417,2.586,5.985-5.163.006,0a.008.008,0,0,1,0,.006Z" transform="translate(-2.156 -5.745)" fill="#d8e0eb"/>
      <path id="Trazado_897981" data-name="Trazado 897981" d="M39.145,35l8.426,4.247L51,47.493a8.994,8.994,0,0,1-7.912-1.5,9.825,9.825,0,0,1-1.7-1.635,10.6,10.6,0,0,1-2.363-7.2A13.227,13.227,0,0,1,39.145,35Z" transform="translate(-5.605 -5.03)" fill="#ff5666"/>
      <path id="Trazado_897982" data-name="Trazado 897982" d="M35.565,54.524V45.73a12.372,12.372,0,0,0,1.242,1.807,13.385,13.385,0,0,0,2.132,2.046,12.056,12.056,0,0,0,2.235,1.336,13.4,13.4,0,0,1,.385,3.023v4.8a1.778,1.778,0,0,1-1.781,1.772l-18.769-.009V54.524Z" transform="translate(-3.019 -6.573)" fill="#d8e0eb"/>
      <path id="Trazado_897983" data-name="Trazado 897983" d="M57.563,35.57a9.041,9.041,0,0,1-.051,7.809,8.256,8.256,0,0,1-5.078,4.2l-3.425-8.246Z" transform="translate(-7.043 -5.112)" fill="#ff5666"/>
      <path id="Trazado_897984" data-name="Trazado 897984" d="M49.572,22.059A2.752,2.752,0,0,1,52,22.684c.009.009.009.017.017.017.068.068.128.128.18.188a2.741,2.741,0,0,1,.617,2.235,8.029,8.029,0,0,0,.026,2.714c.026.154.06.3.094.437a6.357,6.357,0,0,0,1.507,2.714,9.879,9.879,0,0,1,1.7,2.629l-8.554,3.759L39.168,33.13a13.132,13.132,0,0,1,3.554-7.381,13.3,13.3,0,0,1,6.585-3.631C49.4,22.093,49.487,22.076,49.572,22.059Z" transform="translate(-5.629 -3.161)" fill="#ff5666"/>
      <path id="Trazado_897985" data-name="Trazado 897985" d="M26.571,32.931V38.12a4.395,4.395,0,0,1-8.563-.009V32.82a6.484,6.484,0,0,0,4.281,1.867,6.578,6.578,0,0,0,4.273-1.764Z" transform="translate(-2.587 -4.717)" fill="#e5b6a9"/>
      <path id="Trazado_897986" data-name="Trazado 897986" d="M30.846,18.99v.5c-.086,3.9-2.115,8.862-5.146,11.448A6.578,6.578,0,0,1,21.427,32.7a6.484,6.484,0,0,1-4.281-1.867,17.489,17.489,0,0,1-5.129-11.346c-.009-.2-.009-.368-.009-.5a38.973,38.973,0,0,0,3.382,4.667c.711.856,1.43,1.618,2.115,2.312a2.488,2.488,0,0,0,2.62.591,3.943,3.943,0,0,1,1.3-.214,4.153,4.153,0,0,1,1.3.214A2.533,2.533,0,0,0,25.4,25.84c.659-.694,1.336-1.439,2.021-2.252a50.032,50.032,0,0,0,3.425-4.6Z" transform="translate(-1.725 -2.729)" fill="#a05454"/>
      <path id="Trazado_897987" data-name="Trazado 897987" d="M30.846,15v3.417a50.033,50.033,0,0,1-3.425,4.6c-.685.813-1.361,1.558-2.021,2.252a2.534,2.534,0,0,1-2.672.719,4.152,4.152,0,0,0-1.3-.214,3.943,3.943,0,0,0-1.3.214,2.488,2.488,0,0,1-2.62-.591c-.685-.694-1.4-1.456-2.115-2.312a38.973,38.973,0,0,1-3.382-4.667V15Z" transform="translate(-1.725 -2.156)" fill="#efc5b8"/>
      <path id="Trazado_897988" data-name="Trazado 897988" d="M32.42,39.832l-5.985,5.163-3.417-2.586a4.314,4.314,0,0,0,4.273-3.4,14.667,14.667,0,0,1,5.129.822Z" transform="translate(-3.307 -5.606)" fill="#e6ecf4"/>
      <path id="Trazado_897989" data-name="Trazado 897989" d="M21.867,42.407,19.29,44.993l-4.281-3.168V39.179A14.359,14.359,0,0,1,17.577,39a4.33,4.33,0,0,0,4.29,3.408Z" transform="translate(-2.156 -5.605)" fill="#e6ecf4"/>
      <path id="Trazado_897990" data-name="Trazado 897990" d="M14.577,47.7v5.138H12.009V34h2.569Z" transform="translate(-1.725 -4.887)" fill="#a05454"/>
      <path id="Trazado_897991" data-name="Trazado 897991" d="M6.146,61.3v.009H1.009V54.721a13.92,13.92,0,0,1,.505-3.511c.086.531.18,1.045.274,1.524H6.146Z" transform="translate(-0.144 -7.36)" fill="#d8e0eb"/>
      <path id="Trazado_897992" data-name="Trazado 897992" d="M9.577,56.449v4.23a.881.881,0,0,0,.882.882H7.008V52.99H11.29v2.577h-.831a.881.881,0,0,0-.882.882Z" transform="translate(-1.006 -7.616)" fill="#636a74"/>
      <path id="Trazado_897993" data-name="Trazado 897993" d="M18.859,1V12.988h-6.85V4.151A1.843,1.843,0,0,1,13.4,2.361Z" transform="translate(-1.725 -0.144)" fill="#d8e0eb"/>
      <path id="Trazado_897994" data-name="Trazado 897994" d="M19.427,56.856v5.129l-8.537.009a.881.881,0,0,1-.882-.882v-4.23A.881.881,0,0,1,10.89,56h4.5a1.472,1.472,0,0,1,1.036.428,1.452,1.452,0,0,0,1.028.428Z" transform="translate(-1.438 -8.049)" fill="#efc5b8"/>
      <path id="Trazado_897995" data-name="Trazado 897995" d="M1.513,48.736A42.641,42.641,0,0,1,1.8,34.009c2.877,0,5.754-.009,8.631-.009V50.261H1.787C1.693,49.781,1.6,49.267,1.513,48.736Z" transform="translate(-0.144 -4.887)" fill="#e6ecf4"/>
      <path id="Trazado_897996" data-name="Trazado 897996" d="M32,7.85v5.138H20.008V1l10.4,1.49A1.835,1.835,0,0,1,32,4.305Z" transform="translate(-2.875 -0.144)" fill="#e6ecf4"/>
      <path id="Trazado_897997" data-name="Trazado 897997" d="M47.986,48.827h0a12.555,12.555,0,0,1-7.55-2.547A13.7,13.7,0,0,1,38.163,44.1a14.137,14.137,0,0,1-3.143-9.444A16.419,16.419,0,0,1,48.291,18.131,6.238,6.238,0,0,1,53.737,19.6,6.061,6.061,0,0,1,55.6,25.079a4.687,4.687,0,0,0,.018,1.573c.015.087.033.172.053.253A3.008,3.008,0,0,0,56.4,28.14,12.9,12.9,0,0,1,58.558,42.4,11.633,11.633,0,0,1,55.8,45.93a11.878,11.878,0,0,1-7.818,2.9Zm1.595-29.114a4.728,4.728,0,0,0-.947.1,14.708,14.708,0,0,0-11.9,14.862,12.436,12.436,0,0,0,2.753,8.336,12,12,0,0,0,1.987,1.91,10.832,10.832,0,0,0,6.514,2.2,10.165,10.165,0,0,0,6.693-2.475,9.929,9.929,0,0,0,2.351-3.01,11.173,11.173,0,0,0-1.9-12.349A4.665,4.665,0,0,1,54.006,27.3c-.027-.112-.05-.227-.072-.343a6.448,6.448,0,0,1-.025-2.144A4.416,4.416,0,0,0,52.9,21.194a4.5,4.5,0,0,0-.329-.337,4.366,4.366,0,0,0-2.988-1.143Z" transform="translate(-5.031 -2.587)"/>
      <path id="Trazado_897998" data-name="Trazado 897998" d="M54.919,30.28a5.493,5.493,0,0,1-1.313-2.341c-.03-.128-.059-.261-.084-.4a7.279,7.279,0,0,1-.028-2.432,3.573,3.573,0,0,0-.816-2.929c-.072-.081-.15-.162-.236-.243l-.02-.019,0,0a3.611,3.611,0,0,0-3.184-.837,14.107,14.107,0,0,0-7.288,3.93A14.277,14.277,0,0,0,38.022,35.1a11.466,11.466,0,0,0,2.555,7.79,11.1,11.1,0,0,0,1.844,1.772,9.9,9.9,0,0,0,5.987,2.026,9.311,9.311,0,0,0,6.14-2.266,9.089,9.089,0,0,0,2.15-2.752A10.311,10.311,0,0,0,54.919,30.28ZM55.17,40.9a7.377,7.377,0,0,1-1.748,2.235,7.924,7.924,0,0,1-9.965.168,9.412,9.412,0,0,1-1.56-1.5,9.784,9.784,0,0,1-2.164-6.68,12.571,12.571,0,0,1,3.438-8.918,12.4,12.4,0,0,1,6.406-3.448,2.151,2.151,0,0,1,.435-.045,1.818,1.818,0,0,1,1.243.46l.013.012c.047.044.089.089.127.131a1.866,1.866,0,0,1,.407,1.532,9.01,9.01,0,0,0,.035,3c.03.167.064.328.1.488a7.176,7.176,0,0,0,1.7,3.085A8.588,8.588,0,0,1,55.17,40.9Z" transform="translate(-5.462 -3.017)"/>
      <path id="Trazado_897999" data-name="Trazado 897999" d="M50.875,48.213a.857.857,0,0,1-.791-.528l-3.3-7.957-8.139-4.106a.856.856,0,1,1,.771-1.529l8.422,4.249a.855.855,0,0,1,.406.436l3.425,8.25a.856.856,0,0,1-.791,1.185Z" transform="translate(-5.485 -4.887)"/>
      <path id="Trazado_898000" data-name="Trazado 898000" d="M48.864,40.045a.856.856,0,0,1-.345-1.641l8.563-3.758a.857.857,0,1,1,.689,1.569l-8.563,3.758a.865.865,0,0,1-.344.072Z" transform="translate(-6.899 -4.969)"/>
      <path id="Trazado_898001" data-name="Trazado 898001" d="M.863,62.016a.856.856,0,0,1-.856-.856V54.574a14.74,14.74,0,0,1,.538-3.733.856.856,0,0,1,1.688.2v.008a.859.859,0,0,1-.03.226,12.935,12.935,0,0,0-.483,3.3v6.585a.856.856,0,0,1-.856.856Z" transform="translate(0 -7.213)"/>
      <path id="Trazado_898002" data-name="Trazado 898002" d="M14.863,39.893a.856.856,0,0,1-.133-1.7A15.714,15.714,0,0,1,17.452,38a.856.856,0,1,1-.019,1.713h-.019A13.39,13.39,0,0,0,15,39.882.82.82,0,0,1,14.863,39.893Z" transform="translate(-2.012 -5.461)"/>
      <path id="Trazado_898003" data-name="Trazado 898003" d="M22.13,42.233a5.156,5.156,0,0,1-5.1-4.072.883.883,0,0,1-.022-.193v-5.29a.856.856,0,1,1,1.713,0v5.187a3.47,3.47,0,0,0,3.414,2.656h.016a3.475,3.475,0,0,0,3.42-2.647V32.789a.856.856,0,1,1,1.713,0v5.189a.842.842,0,0,1-.023.194,5.161,5.161,0,0,1-5.107,4.061Z" transform="translate(-2.443 -4.573)"/>
      <path id="Trazado_898004" data-name="Trazado 898004" d="M21.287,32.839c-5.362,0-10-7.676-10.269-14.032-.009-.211-.012-.394-.012-.537V14.857A.856.856,0,0,1,11.863,14H30.7a.856.856,0,0,1,.856.856V18.27c0,.13,0,.311,0,.519-.115,5.593-4.27,14.05-10.27,14.05ZM12.72,15.713V18.27c0,.124,0,.281.01.465.23,5.462,4.3,12.392,8.558,12.392,4.817,0,8.456-7.391,8.558-12.373,0-.182,0-.34,0-.467V15.713Z" transform="translate(-1.581 -2.012)"/>
      <path id="Trazado_898005" data-name="Trazado 898005" d="M30.408,49.271H14.863a.856.856,0,1,1,0-1.713H30.276V39.819a.856.856,0,1,1,1.713,0v7.871A1.582,1.582,0,0,1,30.408,49.271Z" transform="translate(-2.012 -5.6)"/>
      <path id="Trazado_898006" data-name="Trazado 898006" d="M6.863,62.266a.856.856,0,0,1-.856-.856V52.847a.856.856,0,1,1,1.713,0v8.563a.856.856,0,0,1-.856.856Z" transform="translate(-0.862 -7.472)"/>
      <path id="Trazado_898007" data-name="Trazado 898007" d="M37.863,55.235a.856.856,0,0,1-.856-.856V45.568a.856.856,0,1,1,1.713,0v8.811a.856.856,0,0,1-.856.856Z" transform="translate(-5.318 -6.426)"/>
      <path id="Trazado_898008" data-name="Trazado 898008" d="M19.145,45.846a.853.853,0,0,1-.509-.168l-4.281-3.171a.856.856,0,0,1,1.018-1.376l3.688,2.731L21.116,41.8a.855.855,0,0,1,1.123-.078L25.1,43.889l5.47-4.72a.856.856,0,1,1,1.119,1.3L25.7,45.637a.856.856,0,0,1-1.076.034L21.8,43.537l-2.05,2.057a.854.854,0,0,1-.606.252Z" transform="translate(-2.012 -5.6)"/>
      <path id="Trazado_898009" data-name="Trazado 898009" d="M18.714,13.7a.856.856,0,0,1-.856-.856V1.954l-4.393,1.1a.982.982,0,0,0-.744.954v8.839a.856.856,0,1,1-1.713,0V4.006a2.693,2.693,0,0,1,2.041-2.616L18.506.026A.857.857,0,0,1,19.57.857V12.845a.856.856,0,0,1-.856.856Z" transform="translate(-1.581 0)"/>
      <path id="Trazado_898010" data-name="Trazado 898010" d="M31.851,13.7A.856.856,0,0,1,31,12.845V4.165a.987.987,0,0,0-.844-.973L19.742,1.7A.856.856,0,1,1,19.985.01L30.393,1.5a2.708,2.708,0,0,1,2.315,2.668v8.68a.856.856,0,0,1-.856.856Z" transform="translate(-2.731)"/>
      <path id="Trazado_898011" data-name="Trazado 898011" d="M14.432,53.552a.856.856,0,0,1-.856-.856V34.714H12.72V52.7a.856.856,0,0,1-1.713,0V33.858A.856.856,0,0,1,11.863,33h2.569a.856.856,0,0,1,.856.856V52.7a.856.856,0,0,1-.856.856Z" transform="translate(-1.581 -4.743)"/>
      <path id="Trazado_898012" data-name="Trazado 898012" d="M1.644,50.979a.856.856,0,0,1-.84-.692A43.241,43.241,0,0,1,.815,33.7a.856.856,0,0,1,.84-.692L10.282,33h0a.856.856,0,1,1,0,1.713l-7.917.007a41.533,41.533,0,0,0-.01,14.545l7.923-.005h0a.856.856,0,1,1,0,1.713l-8.636.006Z" transform="translate(0 -4.743)"/>
      <path id="Trazado_898013" data-name="Trazado 898013" d="M7.882,38.714A.856.856,0,1,1,7.874,37h.008a.856.856,0,1,1,0,1.713Z" transform="translate(-1.008 -5.318)"/>
      <path id="Trazado_898014" data-name="Trazado 898014" d="M58.684,9.713H33.863a.856.856,0,1,1,0-1.713h24.82a.856.856,0,1,1,0,1.713Z" transform="translate(-4.743 -1.15)"/>
      <path id="Trazado_898015" data-name="Trazado 898015" d="M50.863,24.551a.856.856,0,0,1-.856-.856V4.857a.856.856,0,1,1,1.713,0V23.7a.856.856,0,0,1-.856.856Z" transform="translate(-7.186 -0.575)"/>
      <path id="Trazado_898016" data-name="Trazado 898016" d="M19.13,27.418a3.334,3.334,0,0,1-2.371-.984c-.757-.762-1.486-1.558-2.168-2.366a40.016,40.016,0,0,1-3.455-4.774.856.856,0,1,1,1.457-.9,38.392,38.392,0,0,0,3.308,4.57c.651.773,1.35,1.534,2.073,2.262a1.641,1.641,0,0,0,1.735.382,4.878,4.878,0,0,1,3.152,0,1.7,1.7,0,0,0,1.782-.5c.678-.712,1.344-1.456,1.978-2.211a48.5,48.5,0,0,0,3.365-4.523.857.857,0,1,1,1.432.941A50.148,50.148,0,0,1,27.932,24c-.657.783-1.347,1.554-2.05,2.292a3.4,3.4,0,0,1-3.573.942,3.14,3.14,0,0,0-2.045,0,3.485,3.485,0,0,1-1.133.191Z" transform="translate(-1.581 -2.585)"/>
      <path id="Trazado_898017" data-name="Trazado 898017" d="M39.633,62.1l-18.77-.009a.856.856,0,0,1-.855-.856V55.252a.856.856,0,0,1,.856-.856H36.276a.856.856,0,1,1,0,1.713H21.72v4.273l17.913.008a.922.922,0,0,0,.925-.916v-4.8a12.589,12.589,0,0,0-.362-2.823.856.856,0,1,1,1.666-.4,14.224,14.224,0,0,1,.409,3.221v4.8A2.636,2.636,0,0,1,39.633,62.1Z" transform="translate(-2.875 -7.3)"/>
      <path id="Trazado_898018" data-name="Trazado 898018" d="M34.944,41.393a.858.858,0,0,1-.4-.1,13.943,13.943,0,0,0-6.653-1.574.856.856,0,1,1-.057-1.711,15.426,15.426,0,0,1,7.509,1.769.856.856,0,0,1-.4,1.614Z" transform="translate(-3.881 -5.462)"/>
      <path id="Trazado_898019" data-name="Trazado 898019" d="M10.743,62.708A1.737,1.737,0,0,1,9.007,60.97V56.739A1.739,1.739,0,0,1,10.745,55h4.507a2.333,2.333,0,0,1,1.639.679.609.609,0,0,0,.428.177h1.963a.856.856,0,1,1,0,1.713H17.319a2.333,2.333,0,0,1-1.639-.679.609.609,0,0,0-.428-.177H10.745L10.72,60.97l8.562.018h0a.856.856,0,0,1,0,1.713l-8.537.008Z" transform="translate(-1.294 -7.905)"/>
      <path id="Trazado_898020" data-name="Trazado 898020" d="M58.684,5.713H33.866a.856.856,0,1,1,0-1.713H58.684a.856.856,0,1,1,0,1.713Z" transform="translate(-4.744 -0.575)"/>
    </g>
  </g>
</svg>
