<svg xmlns="http://www.w3.org/2000/svg" xmlns:xlink="http://www.w3.org/1999/xlink" width="108.914" height="108.914" viewBox="0 0 108.914 108.914">
  <defs>
    <filter id="Trazado_874925" x="0" y="0" width="108.914" height="108.914" filterUnits="userSpaceOnUse">
      <feOffset dy="3" input="SourceAlpha"/>
      <feGaussianBlur stdDeviation="3" result="blur"/>
      <feFlood flood-opacity="0.161"/>
      <feComposite operator="in" in2="blur"/>
      <feComposite in="SourceGraphic"/>
    </filter>
  </defs>
  <g id="Grupo_1109858" data-name="Grupo 1109858" transform="translate(-1112.708 -2511.157)">
    <g id="Grupo_1109819" data-name="Grupo 1109819" transform="translate(1121.708 2517.157)">
      <g transform="matrix(1, 0, 0, 1, -9, -6)" filter="url(#Trazado_874925)">
        <g id="Trazado_874925-2" data-name="Trazado 874925" transform="translate(9 6)" fill="#efdb59" opacity="0.859">
          <path d="M 45.45676803588867 89.41407012939453 C 39.52198028564453 89.41407012939453 33.76551818847656 88.25206756591797 28.34726715087891 85.96034240722656 C 23.11311721801758 83.74648284912109 18.41204261779785 80.57682800292969 14.37464332580566 76.5394287109375 C 10.33724308013916 72.50202941894531 7.167593002319336 67.80095672607422 4.953730583190918 62.56679534912109 C 2.662005424499512 57.14855575561523 1.500005483627319 51.39208221435547 1.500005483627319 45.45729446411133 C 1.500005483627319 39.52198028564453 2.662005424499512 33.76551818847656 4.953730583190918 28.34726905822754 C 7.167593002319336 23.11310577392578 10.33724308013916 18.41203117370605 14.37464332580566 14.37464332580566 C 18.41204261779785 10.33724403381348 23.11311721801758 7.167593955993652 28.34726715087891 4.953731060028076 C 33.76551818847656 2.662006139755249 39.52198028564453 1.500006198883057 45.45676803588867 1.500006198883057 C 51.39155578613281 1.500006198883057 57.14802932739258 2.662006139755249 62.56626892089844 4.953731060028076 C 67.80043029785156 7.167593955993652 72.50150299072266 10.33724403381348 76.53890228271484 14.37464332580566 C 80.57630920410156 18.41203117370605 83.74595642089844 23.11310577392578 85.95981597900391 28.34726905822754 C 88.25154113769531 33.76551818847656 89.41354370117188 39.52198028564453 89.41354370117188 45.45676803588867 C 89.41354370117188 51.39208221435547 88.25154113769531 57.14855575561523 85.95981597900391 62.56679534912109 C 83.74595642089844 67.80095672607422 80.57630920410156 72.50202941894531 76.53890228271484 76.5394287109375 C 72.50150299072266 80.57682800292969 67.80043029785156 83.74648284912109 62.56626892089844 85.96034240722656 C 57.14802932739258 88.25206756591797 51.39155578613281 89.41407012939453 45.45676803588867 89.41407012939453 Z" stroke="none"/>
          <path d="M 45.45676803588867 3 C 39.72381210327148 3 34.1639404296875 4.12213134765625 28.93159484863281 6.335227966308594 C 23.87622833251953 8.473472595214844 19.33542633056641 11.53517150878906 15.43529510498047 15.435302734375 C 11.53517150878906 19.33543395996094 8.473464965820312 23.87622833251953 6.335227966308594 28.93160247802734 C 4.122123718261719 34.16394424438477 3 39.72381591796875 3 45.4572868347168 C 3 51.19024658203125 4.122123718261719 56.75011825561523 6.335227966308594 61.98246002197266 C 8.473464965820312 67.03782653808594 11.53517150878906 71.57862854003906 15.43529510498047 75.478759765625 C 19.33542633056641 79.37889099121094 23.87622833251953 82.44058990478516 28.93159484863281 84.57883453369141 C 34.1639404296875 86.79193115234375 39.72381210327148 87.9140625 45.45676803588867 87.9140625 C 51.18972396850586 87.9140625 56.74959564208984 86.79193115234375 61.98194122314453 84.57883453369141 C 67.03730773925781 82.44058990478516 71.57810974121094 79.37889099121094 75.47824096679688 75.478759765625 C 79.37837219238281 71.57862854003906 82.44007110595703 67.03782653808594 84.57830810546875 61.98246002197266 C 86.79141235351562 56.75011825561523 87.91353607177734 51.19024658203125 87.91353607177734 45.4567756652832 C 87.91353607177734 39.72381591796875 86.79141235351562 34.16394424438477 84.57830810546875 28.93160247802734 C 82.44007110595703 23.87622833251953 79.37837219238281 19.33543395996094 75.47824096679688 15.435302734375 C 71.57810974121094 11.53517150878906 67.03730773925781 8.473472595214844 61.98194122314453 6.335227966308594 C 56.74959564208984 4.12213134765625 51.18972396850586 3 45.45676803588867 3 M 45.45676803588867 0 C 70.56185150146484 0 90.91353607177734 20.35169219970703 90.91353607177734 45.4567756652832 L 90.91353607177734 45.4572868347168 C 90.91353607177734 70.5623779296875 70.56185150146484 90.9140625 45.45676803588867 90.9140625 C 20.3516845703125 90.9140625 0 70.5623779296875 0 45.4572868347168 L 0 45.4567756652832 C 0 20.35169219970703 20.3516845703125 0 45.45676803588867 0 Z" stroke="none" fill="#fff"/>
        </g>
      </g>
      <g id="Trazado_874923" data-name="Trazado 874923" transform="translate(0 0)" fill="none">
        <path d="M45.457,0A45.457,45.457,0,0,1,90.914,45.457h0A45.457,45.457,0,0,1,0,45.457H0A45.457,45.457,0,0,1,45.457,0Z" stroke="none"/>
        <path d="M 45.45676803588867 3 C 39.72381210327148 3 34.1639404296875 4.12213134765625 28.93159484863281 6.335227966308594 C 23.87622833251953 8.473472595214844 19.33542633056641 11.53517150878906 15.43529510498047 15.435302734375 C 11.53517150878906 19.33543395996094 8.473464965820312 23.87622833251953 6.335227966308594 28.93160247802734 C 4.122123718261719 34.16394424438477 3 39.72381591796875 3 45.4572868347168 C 3 51.19024658203125 4.122123718261719 56.75011825561523 6.335227966308594 61.98246002197266 C 8.473464965820312 67.03782653808594 11.53517150878906 71.57862854003906 15.43529510498047 75.478759765625 C 19.33542633056641 79.37889099121094 23.87622833251953 82.44058990478516 28.93159484863281 84.57883453369141 C 34.1639404296875 86.79193115234375 39.72381210327148 87.9140625 45.45676803588867 87.9140625 C 51.18972396850586 87.9140625 56.74959564208984 86.79193115234375 61.98194122314453 84.57883453369141 C 67.03730773925781 82.44058990478516 71.57810974121094 79.37889099121094 75.47824096679688 75.478759765625 C 79.37837219238281 71.57862854003906 82.44007110595703 67.03782653808594 84.57830810546875 61.98246002197266 C 86.79141235351562 56.75011825561523 87.91353607177734 51.19024658203125 87.91353607177734 45.4567756652832 C 87.91353607177734 39.72381591796875 86.79141235351562 34.16394424438477 84.57830810546875 28.93160247802734 C 82.44007110595703 23.87622833251953 79.37837219238281 19.33543395996094 75.47824096679688 15.435302734375 C 71.57810974121094 11.53517150878906 67.03730773925781 8.473472595214844 61.98194122314453 6.335227966308594 C 56.74959564208984 4.12213134765625 51.18972396850586 3 45.45676803588867 3 M 45.45676803588867 0 C 70.56185150146484 0 90.91353607177734 20.35169219970703 90.91353607177734 45.4567756652832 L 90.91353607177734 45.4572868347168 C 90.91353607177734 70.5623779296875 70.56185150146484 90.9140625 45.45676803588867 90.9140625 C 20.3516845703125 90.9140625 0 70.5623779296875 0 45.4572868347168 L 0 45.4567756652832 C 0 20.35169219970703 20.3516845703125 0 45.45676803588867 0 Z" stroke="none" fill="#fff"/>
      </g>
    </g>
    <g id="Grupo_1110037" data-name="Grupo 1110037" transform="translate(1134.102 2523.191)">
      <g id="Grupo_1110037-2" data-name="Grupo 1110037" transform="translate(0.981 7.996)">
        <path id="Trazado_898135" data-name="Trazado 898135" d="M407.277,22.864c.079-1.345-2.083-1.789-4.717-1.755a1.856,1.856,0,0,1-1.879-1.879c.033-2.634-.411-4.8-1.755-4.717-1.765.1-3.58,3.2-4.053,6.906a13.92,13.92,0,0,0-.111,1.514l4.1,4.1a13.931,13.931,0,0,0,1.514-.111C404.081,26.443,407.173,24.629,407.277,22.864Z" transform="translate(-344.116 -14.51)" fill="#f47c7c"/>
        <path id="Trazado_898136" data-name="Trazado 898136" d="M87.724,62.052a13.627,13.627,0,0,0-19.272,0L38.273,92.231,57.545,111.5,87.724,81.324a13.627,13.627,0,0,0,0-19.272Z" transform="translate(-34.249 -52.365)" fill="#ee6161"/>
        <path id="Trazado_898137" data-name="Trazado 898137" d="M188.908,93.119a14.661,14.661,0,0,1-3.9,13.76L154.04,137.844l4.132,4.132L188.352,111.8a13.627,13.627,0,0,0,.556-18.679Z" transform="translate(-134.876 -82.839)" fill="#e94444"/>
        <circle id="Elipse_11706" data-name="Elipse 11706" cx="13.627" cy="13.627" r="13.627" transform="translate(0 35.908)" fill="#f47c7c"/>
        <path id="Trazado_898138" data-name="Trazado 898138" d="M45.316,379.6l-3.677,3.677a12.367,12.367,0,0,1-11.151,3.446,13.548,13.548,0,0,1-4.915-2.059,13.628,13.628,0,0,0,24.71-10.031Z" transform="translate(-23.209 -327.537)" fill="#ee6161"/>
      </g>
      <g id="Grupo_1110038" data-name="Grupo 1110038" transform="translate(0 7.016)">
        <path id="Trazado_898139" data-name="Trazado 898139" d="M59.484,20.954c2.914-.8,5.512-2.443,5.635-4.541a2.027,2.027,0,0,0-.575-1.554c-.83-.869-2.51-1.278-5.136-1.241a.878.878,0,0,1-.887-.888c.034-2.626-.372-4.305-1.241-5.135a2.032,2.032,0,0,0-1.553-.575c-2.425.142-4.238,3.585-4.853,7a14.641,14.641,0,0,0-16.4,2.97l-6.14,6.14a.981.981,0,1,0,1.387,1.387l4.111-4.111a24.231,24.231,0,0,1,10.61,5.9L33.709,37.042a26.64,26.64,0,0,0-10.4-6.109l3.175-3.175A.981.981,0,0,0,25.1,26.371L4.281,47.189A14.615,14.615,0,0,0,24.95,67.858l9.988-9.988a.981.981,0,0,0-1.387-1.387L28.729,61.3a14.632,14.632,0,0,0-3.11-13.4l8.088-8.088a24.218,24.218,0,0,1,5.9,10.609l-2.8,2.8a.981.981,0,0,0,1.387,1.387L55.144,37.663a14.651,14.651,0,0,0,3.577-14.836A7.006,7.006,0,0,1,65,29.787V39.97a.981.981,0,0,0,1.962,0V29.787a8.971,8.971,0,0,0-7.474-8.833ZM54.118,10.6c.68-1.159,1.336-1.6,1.724-1.618.034,0,.043,0,.083.036.31.3.663,1.441.634,3.691a2.837,2.837,0,0,0,2.874,2.875c2.253-.029,3.4.323,3.692.634.038.04.038.049.036.084-.023.387-.46,1.043-1.618,1.723a11.957,11.957,0,0,1-4.428,1.415A14.793,14.793,0,0,0,52.7,15.024,11.958,11.958,0,0,1,54.118,10.6ZM35.433,18.811l.429-.429a12.654,12.654,0,0,1,17.174-.667L45.831,24.92A26.653,26.653,0,0,0,35.433,18.811ZM21.711,32.533a24.216,24.216,0,0,1,10.61,5.9l-8.088,8.088a14.507,14.507,0,0,0-9.617-3.61,14.7,14.7,0,0,0-3.768.489Zm1.851,33.938a12.654,12.654,0,1,1,0-17.895A12.571,12.571,0,0,1,23.562,66.471ZM35.1,38.43,45.83,27.7a24.231,24.231,0,0,1,5.9,10.61L41.205,48.828A26.639,26.639,0,0,0,35.1,38.43Zm18.661-2.154-.429.429a26.654,26.654,0,0,0-6.109-10.4L54.424,19.1a12.654,12.654,0,0,1-.667,17.174Z" transform="translate(0 -7.016)"/>
        <path id="Trazado_898140" data-name="Trazado 898140" d="M68.889,326.03a.978.978,0,0,0,.694-.287l.523-.523a.981.981,0,1,0-1.387-1.387l-.523.523a.981.981,0,0,0,.694,1.674Z" transform="translate(-59.027 -282.151)"/>
        <path id="Trazado_898141" data-name="Trazado 898141" d="M67.822,436.206l-.523.523a.981.981,0,0,0,1.387,1.387l.523-.523a.981.981,0,1,0-1.387-1.387Z" transform="translate(-58.249 -379.828)"/>
        <path id="Trazado_898142" data-name="Trazado 898142" d="M141.611,335.126a.981.981,0,1,0-1.387-1.387l-.523.523a.981.981,0,0,0,1.387,1.387Z" transform="translate(-121.182 -290.762)"/>
        <path id="Trazado_898143" data-name="Trazado 898143" d="M84.071,365.525l-.523.523a.981.981,0,0,0,1.387,1.387l.523-.523a.981.981,0,1,0-1.387-1.387Z" transform="translate(-72.373 -318.391)"/>
        <path id="Trazado_898144" data-name="Trazado 898144" d="M149.146,440.64l-.523.523a.981.981,0,0,0,1.387,1.387l.523-.523a.981.981,0,0,0-1.387-1.387Z" transform="translate(-128.937 -383.682)"/>
        <path id="Trazado_898145" data-name="Trazado 898145" d="M149.487,381.73l-.523.523a.981.981,0,0,0,1.387,1.387l.523-.523a.981.981,0,1,0-1.387-1.387Z" transform="translate(-129.234 -332.476)"/>
        <path id="Trazado_898146" data-name="Trazado 898146" d="M32.618,382.588l-.523.523a.981.981,0,0,0,1.387,1.387l.523-.523a.981.981,0,1,0-1.387-1.387Z" transform="translate(-27.648 -333.222)"/>
        <path id="Trazado_898147" data-name="Trazado 898147" d="M109.588,409.078l-.523.523a.981.981,0,0,0,1.387,1.387l.523-.523a.981.981,0,0,0-1.387-1.387Z" transform="translate(-94.553 -356.248)"/>
      </g>
    </g>
  </g>
</svg>
