<svg xmlns="http://www.w3.org/2000/svg" xmlns:xlink="http://www.w3.org/1999/xlink" width="108.914" height="108.914" viewBox="0 0 108.914 108.914">
  <defs>
    <filter id="Trazado_874925" x="0" y="0" width="108.914" height="108.914" filterUnits="userSpaceOnUse">
      <feOffset dy="3" input="SourceAlpha"/>
      <feGaussianBlur stdDeviation="3" result="blur"/>
      <feFlood flood-opacity="0.161"/>
      <feComposite operator="in" in2="blur"/>
      <feComposite in="SourceGraphic"/>
    </filter>
  </defs>
  <g id="Grupo_1109855" data-name="Grupo 1109855" transform="translate(-798.427 -2511.157)">
    <g id="Grupo_1109818" data-name="Grupo 1109818" transform="translate(807.427 2517.157)">
      <g transform="matrix(1, 0, 0, 1, -9, -6)" filter="url(#Trazado_874925)">
        <g id="Trazado_874925-2" data-name="Trazado 874925" transform="translate(9 6)" fill="#efdb59" opacity="0.859">
          <path d="M 45.45676803588867 89.41407012939453 C 39.52198028564453 89.41407012939453 33.76551818847656 88.25206756591797 28.34726715087891 85.96034240722656 C 23.11311721801758 83.74648284912109 18.41204261779785 80.57682800292969 14.37464332580566 76.5394287109375 C 10.33724308013916 72.50202941894531 7.167593002319336 67.80095672607422 4.953730583190918 62.56679534912109 C 2.662005424499512 57.14855575561523 1.500005483627319 51.39208221435547 1.500005483627319 45.45729446411133 C 1.500005483627319 39.52198028564453 2.662005424499512 33.76551818847656 4.953730583190918 28.34726905822754 C 7.167593002319336 23.11310577392578 10.33724308013916 18.41203117370605 14.37464332580566 14.37464332580566 C 18.41204261779785 10.33724403381348 23.11311721801758 7.167593955993652 28.34726715087891 4.953731060028076 C 33.76551818847656 2.662006139755249 39.52198028564453 1.500006198883057 45.45676803588867 1.500006198883057 C 51.39155578613281 1.500006198883057 57.14802932739258 2.662006139755249 62.56626892089844 4.953731060028076 C 67.80043029785156 7.167593955993652 72.50150299072266 10.33724403381348 76.53890228271484 14.37464332580566 C 80.57630920410156 18.41203117370605 83.74595642089844 23.11310577392578 85.95981597900391 28.34726905822754 C 88.25154113769531 33.76551818847656 89.41354370117188 39.52198028564453 89.41354370117188 45.45676803588867 C 89.41354370117188 51.39208221435547 88.25154113769531 57.14855575561523 85.95981597900391 62.56679534912109 C 83.74595642089844 67.80095672607422 80.57630920410156 72.50202941894531 76.53890228271484 76.5394287109375 C 72.50150299072266 80.57682800292969 67.80043029785156 83.74648284912109 62.56626892089844 85.96034240722656 C 57.14802932739258 88.25206756591797 51.39155578613281 89.41407012939453 45.45676803588867 89.41407012939453 Z" stroke="none"/>
          <path d="M 45.45676803588867 3 C 39.72381210327148 3 34.1639404296875 4.12213134765625 28.93159484863281 6.335227966308594 C 23.87622833251953 8.473472595214844 19.33542633056641 11.53517150878906 15.43529510498047 15.435302734375 C 11.53517150878906 19.33543395996094 8.473464965820312 23.87622833251953 6.335227966308594 28.93160247802734 C 4.122123718261719 34.16394424438477 3 39.72381591796875 3 45.4572868347168 C 3 51.19024658203125 4.122123718261719 56.75011825561523 6.335227966308594 61.98246002197266 C 8.473464965820312 67.03782653808594 11.53517150878906 71.57862854003906 15.43529510498047 75.478759765625 C 19.33542633056641 79.37889099121094 23.87622833251953 82.44058990478516 28.93159484863281 84.57883453369141 C 34.1639404296875 86.79193115234375 39.72381210327148 87.9140625 45.45676803588867 87.9140625 C 51.18972396850586 87.9140625 56.74959564208984 86.79193115234375 61.98194122314453 84.57883453369141 C 67.03730773925781 82.44058990478516 71.57810974121094 79.37889099121094 75.47824096679688 75.478759765625 C 79.37837219238281 71.57862854003906 82.44007110595703 67.03782653808594 84.57830810546875 61.98246002197266 C 86.79141235351562 56.75011825561523 87.91353607177734 51.19024658203125 87.91353607177734 45.4567756652832 C 87.91353607177734 39.72381591796875 86.79141235351562 34.16394424438477 84.57830810546875 28.93160247802734 C 82.44007110595703 23.87622833251953 79.37837219238281 19.33543395996094 75.47824096679688 15.435302734375 C 71.57810974121094 11.53517150878906 67.03730773925781 8.473472595214844 61.98194122314453 6.335227966308594 C 56.74959564208984 4.12213134765625 51.18972396850586 3 45.45676803588867 3 M 45.45676803588867 0 C 70.56185150146484 0 90.91353607177734 20.35169219970703 90.91353607177734 45.4567756652832 L 90.91353607177734 45.4572868347168 C 90.91353607177734 70.5623779296875 70.56185150146484 90.9140625 45.45676803588867 90.9140625 C 20.3516845703125 90.9140625 0 70.5623779296875 0 45.4572868347168 L 0 45.4567756652832 C 0 20.35169219970703 20.3516845703125 0 45.45676803588867 0 Z" stroke="none" fill="#fff"/>
        </g>
      </g>
      <g id="Trazado_874923" data-name="Trazado 874923" transform="translate(0 0)" fill="none">
        <path d="M45.457,0A45.457,45.457,0,0,1,90.914,45.457h0A45.457,45.457,0,0,1,0,45.457H0A45.457,45.457,0,0,1,45.457,0Z" stroke="none"/>
        <path d="M 45.45676803588867 3 C 39.72381210327148 3 34.1639404296875 4.12213134765625 28.93159484863281 6.335227966308594 C 23.87622833251953 8.473472595214844 19.33542633056641 11.53517150878906 15.43529510498047 15.435302734375 C 11.53517150878906 19.33543395996094 8.473464965820312 23.87622833251953 6.335227966308594 28.93160247802734 C 4.122123718261719 34.16394424438477 3 39.72381591796875 3 45.4572868347168 C 3 51.19024658203125 4.122123718261719 56.75011825561523 6.335227966308594 61.98246002197266 C 8.473464965820312 67.03782653808594 11.53517150878906 71.57862854003906 15.43529510498047 75.478759765625 C 19.33542633056641 79.37889099121094 23.87622833251953 82.44058990478516 28.93159484863281 84.57883453369141 C 34.1639404296875 86.79193115234375 39.72381210327148 87.9140625 45.45676803588867 87.9140625 C 51.18972396850586 87.9140625 56.74959564208984 86.79193115234375 61.98194122314453 84.57883453369141 C 67.03730773925781 82.44058990478516 71.57810974121094 79.37889099121094 75.47824096679688 75.478759765625 C 79.37837219238281 71.57862854003906 82.44007110595703 67.03782653808594 84.57830810546875 61.98246002197266 C 86.79141235351562 56.75011825561523 87.91353607177734 51.19024658203125 87.91353607177734 45.4567756652832 C 87.91353607177734 39.72381591796875 86.79141235351562 34.16394424438477 84.57830810546875 28.93160247802734 C 82.44007110595703 23.87622833251953 79.37837219238281 19.33543395996094 75.47824096679688 15.435302734375 C 71.57810974121094 11.53517150878906 67.03730773925781 8.473472595214844 61.98194122314453 6.335227966308594 C 56.74959564208984 4.12213134765625 51.18972396850586 3 45.45676803588867 3 M 45.45676803588867 0 C 70.56185150146484 0 90.91353607177734 20.35169219970703 90.91353607177734 45.4567756652832 L 90.91353607177734 45.4572868347168 C 90.91353607177734 70.5623779296875 70.56185150146484 90.9140625 45.45676803588867 90.9140625 C 20.3516845703125 90.9140625 0 70.5623779296875 0 45.4572868347168 L 0 45.4567756652832 C 0 20.35169219970703 20.3516845703125 0 45.45676803588867 0 Z" stroke="none" fill="#fff"/>
      </g>
    </g>
    <g id="layer2" transform="translate(825.664 2535.395)">
      <path id="path5012" d="M10.749,39.05h8.9a5.326,5.326,0,0,0,5.338-5.338V6.132A5.326,5.326,0,0,0,19.646.794H7.19A5.326,5.326,0,0,0,1.852,6.132V39.05Z" transform="translate(3.125 0.625)" fill="#38668c"/>
      <path id="path5014" d="M4.036,8.02a1.478,1.478,0,0,0-1.654,1.5V21.977h8.839c-.443-3.678-3.5-4.575-3.5-6.228V12.191A4.014,4.014,0,0,0,4.036,8.02Z" transform="translate(4.376 17.698)" fill="#2c5170"/>
      <path id="path5016" d="M17.145,32.991a1.775,1.775,0,0,0,1.779-1.779V3.631a1.775,1.775,0,0,0-1.779-1.779H14.476l-.935.89H8.185l-.826-.89H4.69A1.775,1.775,0,0,0,2.91,3.631v29.36Z" transform="translate(5.626 3.125)" fill="#e4eff8"/>
      <path id="path5018" d="M4.69,1.852A1.775,1.775,0,0,0,2.91,3.631v29.36H4.69V5.411A1.776,1.776,0,0,1,6.469,3.631H7.4l.825.89h5.357l.935-.89h4.4a1.775,1.775,0,0,0-1.779-1.779H14.476l-.935.89H8.184l-.825-.89Z" transform="translate(5.626 3.125)" fill="#c4dcf0"/>
      <path id="path5020" d="M7.19.794A5.326,5.326,0,0,0,1.852,6.132V26.595c0-1.045.8-1.537,1.779-1.491V6.132A5.326,5.326,0,0,1,8.97.794Z" transform="translate(3.125 0.625)" fill="#f8f8f8"/>
      <path id="path5022" d="M6.615.794a5.326,5.326,0,0,1,5.338,5.338v27.58A5.326,5.326,0,0,1,6.615,39.05H8.394a5.326,5.326,0,0,0,5.338-5.338V6.132A5.326,5.326,0,0,0,8.394.794Z" transform="translate(14.377 0.625)" fill="#2c5170"/>
      <path id="rect5024" d="M2.838,14.552H16.183a1.775,1.775,0,0,1,1.779,1.779v1.779a1.775,1.775,0,0,1-1.779,1.779H2.838a1.775,1.775,0,0,1-1.779-1.779V16.331a1.775,1.775,0,0,1,1.779-1.779Z" transform="translate(1.25 33.13)" fill="#38668c"/>
      <path id="path5026" d="M4.762,14.552a1.775,1.775,0,0,1,1.779,1.779v1.779A1.775,1.775,0,0,1,4.762,19.89H7.432a1.775,1.775,0,0,0,1.779-1.779V16.331a1.775,1.775,0,0,0-1.779-1.779Z" transform="translate(10.002 33.13)" fill="#2c5170"/>
      <path id="path5028" d="M10.749,22.867c-.01-4.439-3.559-5.338-3.559-7.117V12.191C7.056,7.742,1.852,6.852,1.852,9.522V22.867Z" transform="translate(3.125 17.698)" fill="#ffc6a0"/>
      <path id="path5030" d="M18.587,24.4H9.69a5.326,5.326,0,0,1-5.338-5.338V6.994H4.318A4.458,4.458,0,0,0,.794,11.64V19.21c0,2.523,2.669,7.861,2.669,9.641v3.559h13.5c0-1.779,1.908-4.449,1.908-8.035Z" transform="translate(0.625 15.273)" fill="#ffc6a0"/>
      <path id="path5032" d="M.794,11.64V19.21c0,2.523,2.669,7.861,2.669,9.641v3.559H5.242V28.85c0-1.779-2.669-7.118-2.669-9.641V11.64a4.824,4.824,0,0,1,1.779-3.9l-.017-.749A4.457,4.457,0,0,0,.794,11.64Z" transform="translate(0.625 15.273)" fill="#f8f8f8"/>
      <path id="path5036" d="M9.387,12.163,9.1,12.19H6.716c-.01,3.571-1.906,6.233-1.906,8.007H7.479c0-1.779,1.908-4.449,1.908-8.035Z" transform="translate(10.113 27.484)" fill="#ffaf7a"/>
      <path id="circle5038" d="M18.64,2.573A1.779,1.779,0,1,1,16.861.794,1.779,1.779,0,0,1,18.64,2.573Z" transform="translate(34.38 0.625)" fill="#ff5151"/>
      <path id="path5041" d="M18.23,1.852a3.551,3.551,0,0,0-3.559,3.559V26.838a7.114,7.114,0,1,0,7.117,0V5.411A3.551,3.551,0,0,0,18.23,1.852Z" transform="translate(25.004 3.125)" fill="#e4eff8"/>
      <path id="path5044" d="M18.23,1.852a3.551,3.551,0,0,0-3.559,3.559V26.838A7.111,7.111,0,0,0,18.23,40.109a7,7,0,0,0,.89-.061,7.107,7.107,0,0,1-2.669-13.21V5.411A3.542,3.542,0,0,1,19.12,1.975a3.559,3.559,0,0,0-.89-.123Z" transform="translate(25.004 3.125)" fill="#f8f8f8"/>
      <path id="path5046" d="M14.167,1.852a3.56,3.56,0,0,0-1.335.261,3.548,3.548,0,0,1,2.224,3.3V26.835A7.111,7.111,0,0,1,12.832,39.98a7.112,7.112,0,0,0,4.893-13.146V5.411a3.551,3.551,0,0,0-3.559-3.559Z" transform="translate(29.067 3.125)" fill="#c4dcf0"/>
      <path id="path5048" d="M17.774,12.988A2.669,2.669,0,1,1,15.1,10.319,2.669,2.669,0,0,1,17.774,12.988Z" transform="translate(28.13 23.129)" fill="#ff5151"/>
      <path id="path5050" d="M15.1,10.319a2.649,2.649,0,0,1,.89.163,2.654,2.654,0,0,0,0,5.011,2.665,2.665,0,1,1-.89-5.175Z" transform="translate(28.13 23.129)" fill="#f8f8f8"/>
      <path id="path5053" d="M2.838,14.552a1.775,1.775,0,0,0-1.779,1.779v1.779A1.775,1.775,0,0,0,2.838,19.89H4.617a1.775,1.775,0,0,1-1.779-1.779V16.331a1.775,1.775,0,0,1,1.779-1.779Z" transform="translate(1.25 33.13)" fill="#f8f8f8"/>
      <path id="path5055" d="M2.91,8.023V18.411H8.33c-.917-1.058-1.861-1.75-1.861-2.669V12.183A4.029,4.029,0,0,0,2.91,8.023Z" transform="translate(5.626 17.705)" fill="#c4dcf0"/>
      <path id="path5058" d="M10.421,21.932a.821.821,0,0,0-.134-.429c-.636-3.282-3.425-4.174-3.425-5.753V12.191A4.014,4.014,0,0,0,3.178,8.02a1.791,1.791,0,0,0-1.187.391,4.247,4.247,0,0,1,2.2,3.779v3.559c.941,4.864,3.408,2.936,3.559,7.163a.842.842,0,0,0,.844.845h1.825Z" transform="translate(3.454 17.698)" fill="#ffaf7a"/>
      <path id="path5060" d="M13.854,10.319a2.649,2.649,0,0,0-.89.163,2.654,2.654,0,0,1,0,5.011,2.665,2.665,0,1,0,.89-5.175Z" transform="translate(29.38 23.129)" fill="#ff2929"/>
      <path id="path6715" d="M10.316.529A6.219,6.219,0,0,0,4.088,6.755l0,14.817a4.9,4.9,0,0,0-2.7,2.134,6.193,6.193,0,0,0-.86,3.206v7.571a19.235,19.235,0,0,0,1.387,5.4c.335.941.664,1.847.905,2.608A6.52,6.52,0,0,1,3.2,44.125v2.818a2.67,2.67,0,0,0-1.779,2.521v1.779A2.664,2.664,0,0,0,4.084,53.91H17.437A2.664,2.664,0,0,0,20.1,51.245V49.465a2.656,2.656,0,0,0-1.534-2.421c.154-.645.485-1.477.817-2.4a15.9,15.9,0,0,0,.964-4.078h2.422A6.219,6.219,0,0,0,29,34.339c0-9.006,0-19.232,0-27.584A6.219,6.219,0,0,0,22.771.529Zm40.927,0A2.669,2.669,0,1,0,53.91,3.195,2.668,2.668,0,0,0,51.243.529Zm0,1.779a.89.89,0,1,1-.891.886A.885.885,0,0,1,51.243,2.309Zm-28.472,0A4.429,4.429,0,0,1,27.22,6.755c0,9.688,0,18.242,0,27.584a4.429,4.429,0,0,1-4.448,4.445H14.563a6.941,6.941,0,0,0-.672-1.778h8.881a2.664,2.664,0,0,0,2.669-2.667c0-9.006,0-19.232,0-27.584a2.664,2.664,0,0,0-2.669-2.667H20.106a.893.893,0,0,0-.657.283l-.558.6H14.2l-.558-.6a.89.89,0,0,0-.657-.283H10.316A2.664,2.664,0,0,0,7.647,6.755l0,18.214a3.868,3.868,0,0,0-1.017-.141,3.126,3.126,0,0,0-.759.092l0-18.166A4.429,4.429,0,0,1,10.316,2.31ZM38.789,8.535V29.463a8.009,8.009,0,1,0,8.893,0V8.535a4.447,4.447,0,0,0-8.893,0Zm-26.2-2.667.565.606a.891.891,0,0,0,.65.281h5.47a.89.89,0,0,0,.65-.281l.565-.606h2.278a.881.881,0,0,1,.888.888c0,8.98,0,19.08,0,27.584a.881.881,0,0,1-.888.888H12.583c-.4-.43-.79-.816-1.027-1.1a1.147,1.147,0,0,1-.351-.678V29.887A5.265,5.265,0,0,0,9.426,25.93l0-19.175a.881.881,0,0,1,.888-.888Zm30.642,0A2.66,2.66,0,0,1,45.9,8.535V29.958a.891.891,0,0,0,.44.77,6.23,6.23,0,1,1-6.214,0,.892.892,0,0,0,.44-.77V8.535a2.66,2.66,0,0,1,2.667-2.666ZM32.558,8.536a.89.89,0,1,0,0,1.779h3.559a.89.89,0,1,0,0-1.779Zm-13.345.89a.855.855,0,0,0-.89.89v.89H12.1a.89.89,0,1,0,0,1.779h6.226v.89a.891.891,0,0,0,1.781,0v-.89h.89a.89.89,0,1,0,0-1.779H20.1v-.89A.855.855,0,0,0,19.213,9.426Zm24.021.89a.855.855,0,0,0-.89.89V32.681a3.56,3.56,0,1,0,1.779,0V11.205a.855.855,0,0,0-.89-.89Zm-8.947,2.667a.891.891,0,0,0,0,1.781h1.83a.89.89,0,1,0,0-1.779ZM13.874,15.654a.855.855,0,0,0-.89.89v.89H12.1a.89.89,0,1,0,0,1.779h.89v.89a.89.89,0,1,0,1.779,0v-.89h6.228a.89.89,0,1,0,0-1.779H14.764v-.89a.855.855,0,0,0-.89-.89Zm18.683,1.779a.89.89,0,1,0,0,1.779h3.559a.89.89,0,1,0,0-1.779ZM19.213,21.882a.854.854,0,0,0-.89.89v.89H12.1a.89.89,0,1,0,0,1.779h6.226v.89a.891.891,0,0,0,1.781,0v-.89h.89a.89.89,0,1,0,0-1.779H20.1v-.89A.855.855,0,0,0,19.213,21.882Zm15.074,0a.89.89,0,1,0,0,1.779h1.83a.89.89,0,1,0,0-1.779ZM4.09,28.106v6.233a.89.89,0,1,0,1.779,0V27.22a.5.5,0,0,1,.289-.525,1.647,1.647,0,0,1,1.157.034,3.291,3.291,0,0,1,2.111,3.185v3.533a2.852,2.852,0,0,0,.758,1.807c.388.471.829.88,1.241,1.345a5.583,5.583,0,0,1,1.557,3.967.89.89,0,1,0,1.779,0h3.8a14.519,14.519,0,0,1-.858,3.481,24.791,24.791,0,0,0-.9,2.745H4.978V44.126a7.555,7.555,0,0,0-.462-2.174c-.259-.819-.592-1.736-.924-2.667a18.4,18.4,0,0,1-1.281-4.8V26.913a4.547,4.547,0,0,1,.6-2.28A3.071,3.071,0,0,1,4.09,23.5ZM32.558,26.33a.89.89,0,1,0,0,1.779h3.559a.89.89,0,1,0,0-1.779Zm10.676,8.007a1.779,1.779,0,1,1-1.779,1.779,1.781,1.781,0,0,1,1.779-1.779ZM4.088,48.57H17.435a.887.887,0,0,1,.888.895v1.779a.884.884,0,0,1-.886.886H4.084a.884.884,0,0,1-.886-.886V49.465A.886.886,0,0,1,4.088,48.57Z" transform="translate(0 0)" fill="#333"/>
    </g>
  </g>
</svg>
