<svg xmlns="http://www.w3.org/2000/svg" xmlns:xlink="http://www.w3.org/1999/xlink" width="108.914" height="108.914" viewBox="0 0 108.914 108.914">
  <defs>
    <filter id="Trazado_874925" x="0" y="0" width="108.914" height="108.914" filterUnits="userSpaceOnUse">
      <feOffset dy="3" input="SourceAlpha"/>
      <feGaussianBlur stdDeviation="3" result="blur"/>
      <feFlood flood-opacity="0.161"/>
      <feComposite operator="in" in2="blur"/>
      <feComposite in="SourceGraphic"/>
    </filter>
  </defs>
  <g id="Grupo_1109856" data-name="Grupo 1109856" transform="translate(-1112.708 -2511.157)">
    <g id="Grupo_1109819" data-name="Grupo 1109819" transform="translate(1121.708 2517.157)">
      <g transform="matrix(1, 0, 0, 1, -9, -6)" filter="url(#Trazado_874925)">
        <g id="Trazado_874925-2" data-name="Trazado 874925" transform="translate(9 6)" fill="#efdb59" opacity="0.859">
          <path d="M 45.45676803588867 89.41407012939453 C 39.52198028564453 89.41407012939453 33.76551818847656 88.25206756591797 28.34726715087891 85.96034240722656 C 23.11311721801758 83.74648284912109 18.41204261779785 80.57682800292969 14.37464332580566 76.5394287109375 C 10.33724308013916 72.50202941894531 7.167593002319336 67.80095672607422 4.953730583190918 62.56679534912109 C 2.662005424499512 57.14855575561523 1.500005483627319 51.39208221435547 1.500005483627319 45.45729446411133 C 1.500005483627319 39.52198028564453 2.662005424499512 33.76551818847656 4.953730583190918 28.34726905822754 C 7.167593002319336 23.11310577392578 10.33724308013916 18.41203117370605 14.37464332580566 14.37464332580566 C 18.41204261779785 10.33724403381348 23.11311721801758 7.167593955993652 28.34726715087891 4.953731060028076 C 33.76551818847656 2.662006139755249 39.52198028564453 1.500006198883057 45.45676803588867 1.500006198883057 C 51.39155578613281 1.500006198883057 57.14802932739258 2.662006139755249 62.56626892089844 4.953731060028076 C 67.80043029785156 7.167593955993652 72.50150299072266 10.33724403381348 76.53890228271484 14.37464332580566 C 80.57630920410156 18.41203117370605 83.74595642089844 23.11310577392578 85.95981597900391 28.34726905822754 C 88.25154113769531 33.76551818847656 89.41354370117188 39.52198028564453 89.41354370117188 45.45676803588867 C 89.41354370117188 51.39208221435547 88.25154113769531 57.14855575561523 85.95981597900391 62.56679534912109 C 83.74595642089844 67.80095672607422 80.57630920410156 72.50202941894531 76.53890228271484 76.5394287109375 C 72.50150299072266 80.57682800292969 67.80043029785156 83.74648284912109 62.56626892089844 85.96034240722656 C 57.14802932739258 88.25206756591797 51.39155578613281 89.41407012939453 45.45676803588867 89.41407012939453 Z" stroke="none"/>
          <path d="M 45.45676803588867 3 C 39.72381210327148 3 34.1639404296875 4.12213134765625 28.93159484863281 6.335227966308594 C 23.87622833251953 8.473472595214844 19.33542633056641 11.53517150878906 15.43529510498047 15.435302734375 C 11.53517150878906 19.33543395996094 8.473464965820312 23.87622833251953 6.335227966308594 28.93160247802734 C 4.122123718261719 34.16394424438477 3 39.72381591796875 3 45.4572868347168 C 3 51.19024658203125 4.122123718261719 56.75011825561523 6.335227966308594 61.98246002197266 C 8.473464965820312 67.03782653808594 11.53517150878906 71.57862854003906 15.43529510498047 75.478759765625 C 19.33542633056641 79.37889099121094 23.87622833251953 82.44058990478516 28.93159484863281 84.57883453369141 C 34.1639404296875 86.79193115234375 39.72381210327148 87.9140625 45.45676803588867 87.9140625 C 51.18972396850586 87.9140625 56.74959564208984 86.79193115234375 61.98194122314453 84.57883453369141 C 67.03730773925781 82.44058990478516 71.57810974121094 79.37889099121094 75.47824096679688 75.478759765625 C 79.37837219238281 71.57862854003906 82.44007110595703 67.03782653808594 84.57830810546875 61.98246002197266 C 86.79141235351562 56.75011825561523 87.91353607177734 51.19024658203125 87.91353607177734 45.4567756652832 C 87.91353607177734 39.72381591796875 86.79141235351562 34.16394424438477 84.57830810546875 28.93160247802734 C 82.44007110595703 23.87622833251953 79.37837219238281 19.33543395996094 75.47824096679688 15.435302734375 C 71.57810974121094 11.53517150878906 67.03730773925781 8.473472595214844 61.98194122314453 6.335227966308594 C 56.74959564208984 4.12213134765625 51.18972396850586 3 45.45676803588867 3 M 45.45676803588867 0 C 70.56185150146484 0 90.91353607177734 20.35169219970703 90.91353607177734 45.4567756652832 L 90.91353607177734 45.4572868347168 C 90.91353607177734 70.5623779296875 70.56185150146484 90.9140625 45.45676803588867 90.9140625 C 20.3516845703125 90.9140625 0 70.5623779296875 0 45.4572868347168 L 0 45.4567756652832 C 0 20.35169219970703 20.3516845703125 0 45.45676803588867 0 Z" stroke="none" fill="#fff"/>
        </g>
      </g>
      <g id="Trazado_874923" data-name="Trazado 874923" transform="translate(0 0)" fill="none">
        <path d="M45.457,0A45.457,45.457,0,0,1,90.914,45.457h0A45.457,45.457,0,0,1,0,45.457H0A45.457,45.457,0,0,1,45.457,0Z" stroke="none"/>
        <path d="M 45.45676803588867 3 C 39.72381210327148 3 34.1639404296875 4.12213134765625 28.93159484863281 6.335227966308594 C 23.87622833251953 8.473472595214844 19.33542633056641 11.53517150878906 15.43529510498047 15.435302734375 C 11.53517150878906 19.33543395996094 8.473464965820312 23.87622833251953 6.335227966308594 28.93160247802734 C 4.122123718261719 34.16394424438477 3 39.72381591796875 3 45.4572868347168 C 3 51.19024658203125 4.122123718261719 56.75011825561523 6.335227966308594 61.98246002197266 C 8.473464965820312 67.03782653808594 11.53517150878906 71.57862854003906 15.43529510498047 75.478759765625 C 19.33542633056641 79.37889099121094 23.87622833251953 82.44058990478516 28.93159484863281 84.57883453369141 C 34.1639404296875 86.79193115234375 39.72381210327148 87.9140625 45.45676803588867 87.9140625 C 51.18972396850586 87.9140625 56.74959564208984 86.79193115234375 61.98194122314453 84.57883453369141 C 67.03730773925781 82.44058990478516 71.57810974121094 79.37889099121094 75.47824096679688 75.478759765625 C 79.37837219238281 71.57862854003906 82.44007110595703 67.03782653808594 84.57830810546875 61.98246002197266 C 86.79141235351562 56.75011825561523 87.91353607177734 51.19024658203125 87.91353607177734 45.4567756652832 C 87.91353607177734 39.72381591796875 86.79141235351562 34.16394424438477 84.57830810546875 28.93160247802734 C 82.44007110595703 23.87622833251953 79.37837219238281 19.33543395996094 75.47824096679688 15.435302734375 C 71.57810974121094 11.53517150878906 67.03730773925781 8.473472595214844 61.98194122314453 6.335227966308594 C 56.74959564208984 4.12213134765625 51.18972396850586 3 45.45676803588867 3 M 45.45676803588867 0 C 70.56185150146484 0 90.91353607177734 20.35169219970703 90.91353607177734 45.4567756652832 L 90.91353607177734 45.4572868347168 C 90.91353607177734 70.5623779296875 70.56185150146484 90.9140625 45.45676803588867 90.9140625 C 20.3516845703125 90.9140625 0 70.5623779296875 0 45.4572868347168 L 0 45.4567756652832 C 0 20.35169219970703 20.3516845703125 0 45.45676803588867 0 Z" stroke="none" fill="#fff"/>
      </g>
    </g>
    <g id="Grupo_1110030" data-name="Grupo 1110030" transform="translate(1136.114 2534.545)">
      <g id="Grupo_1110030-2" data-name="Grupo 1110030" transform="translate(3.938 0.822)">
        <path id="Trazado_898111" data-name="Trazado 898111" d="M57.233,68.088H17.8a7.191,7.191,0,0,0-7.191,7.191V105a7.191,7.191,0,0,0,7.191,7.191h39.43A7.191,7.191,0,0,0,64.424,105V75.279A7.191,7.191,0,0,0,57.233,68.088ZM25.108,95.881a3.693,3.693,0,1,1-7.386,0V84.4a3.693,3.693,0,1,1,7.386,0Z" transform="translate(-10.613 -61.445)" fill="#e8a882"/>
        <path id="Trazado_898112" data-name="Trazado 898112" d="M257.893,68.089h-15.4c-4.319,6.7-6.511,15.781-6.511,26.991a3.289,3.289,0,0,0,3.289,3.289h2.338a3.289,3.289,0,0,1,3.289,3.289v10.135c0,.134,0,.268.011.4h12.982a7.2,7.2,0,0,0,1.654-.193c0-.032,0-.064,0-.1V68.283A7.2,7.2,0,0,0,257.893,68.089Z" transform="translate(-211.273 -61.446)" fill="#e3986d"/>
        <path id="Trazado_898113" data-name="Trazado 898113" d="M347.3,289.366v16.825a4.036,4.036,0,0,0,8.071,0V289.366l-4.035-3.064Z" transform="translate(-310.386 -255.733)" fill="#6a647f"/>
        <path id="Trazado_898114" data-name="Trazado 898114" d="M281.47,7.581c-4.151,1.68-15.487,8.557-15.487,33.553h16.988V8.593a1.091,1.091,0,0,0-1.5-1.012Z" transform="translate(-237.983 -7.5)" fill="#dededc"/>
        <path id="Trazado_898115" data-name="Trazado 898115" d="M282.961,8.447a1.091,1.091,0,0,0-1.49-.866c-4.151,1.68-15.487,8.557-15.487,33.553h3.289C269.272,19.176,278.02,11.2,282.961,8.447Z" transform="translate(-237.983 -7.5)" fill="#ececec"/>
      </g>
      <g id="Grupo_1110031" data-name="Grupo 1110031" transform="translate(3.116 0)">
        <path id="Trazado_898116" data-name="Trazado 898116" d="M374.669,360.973a1.162,1.162,0,1,0,1.162,1.162A1.162,1.162,0,0,0,374.669,360.973Z" transform="translate(-332.895 -321.394)"/>
        <path id="Trazado_898117" data-name="Trazado 898117" d="M374.669,428.893a1.162,1.162,0,1,0,1.162,1.162A1.162,1.162,0,0,0,374.669,428.893Z" transform="translate(-332.895 -381.867)"/>
        <path id="Trazado_898118" data-name="Trazado 898118" d="M101.63,389.349v1.709a.822.822,0,1,0,1.645,0v-1.709a.822.822,0,0,0-1.645,0Z" transform="translate(-90.828 -345.927)"/>
        <path id="Trazado_898119" data-name="Trazado 898119" d="M265.51,391.058v-1.709a.822.822,0,0,0-1.645,0v1.709a.822.822,0,1,0,1.645,0Z" transform="translate(-235.275 -345.927)"/>
        <path id="Trazado_898120" data-name="Trazado 898120" d="M164.528,406.363a3.933,3.933,0,0,0,2.965-1.35.822.822,0,1,0-1.24-1.081,2.285,2.285,0,0,1-3.45,0,.822.822,0,1,0-1.24,1.081A3.932,3.932,0,0,0,164.528,406.363Z" transform="translate(-144.01 -359.392)"/>
        <path id="Trazado_898121" data-name="Trazado 898121" d="M76.98,191.671V180.189a4.515,4.515,0,0,0-9.03,0v11.482a4.515,4.515,0,1,0,9.03,0Zm-1.645,0a2.871,2.871,0,1,1-5.741,0V180.189a2.871,2.871,0,0,1,5.741,0Z" transform="translate(-60.841 -156.412)"/>
        <path id="Trazado_898122" data-name="Trazado 898122" d="M50.558,6.644h-.81V1.916A1.914,1.914,0,0,0,47.117.141a20.873,20.873,0,0,0-8.342,6.5H11.129a8.022,8.022,0,0,0-8.013,8.013V33.818a.822.822,0,1,0,1.645,0V14.657a6.376,6.376,0,0,1,6.368-6.368h26.44c-.052.077-.333.5-.516.793v0c-3.686,5.855-5.671,13.688-5.911,23.352-.017.665-.025,1.365-.025,2.021a.822.822,0,0,0,.822.822h8.094V50.747h-28.9a6.376,6.376,0,0,1-6.368-6.368V37.107a.822.822,0,0,0-1.645,0v7.272a8.022,8.022,0,0,0,8.013,8.013H40.162a4.857,4.857,0,0,0,9.456,0h.94a8.022,8.022,0,0,0,8.013-8.013V14.657a8.022,8.022,0,0,0-8.013-8.013ZM44.89,54.494a3.217,3.217,0,0,1-3.2-2.979c0-.064-.009-.164-.009-.234v-16H48.1v16c0,.106-.01.245-.009.234A3.217,3.217,0,0,1,44.89,54.494ZM56.927,44.379a6.376,6.376,0,0,1-6.368,6.368h-.81V16.456a.822.822,0,0,0-1.645,0V33.634H32.765c.007-.71.026-1.469.057-2.263a54.274,54.274,0,0,1,2.1-13.492,31.024,31.024,0,0,1,4.871-9.867,19.371,19.371,0,0,1,7.94-6.346.268.268,0,0,1,.369.25V13.167a.822.822,0,1,0,1.645,0V8.288h.81a6.376,6.376,0,0,1,6.368,6.368Z" transform="translate(-3.116 0)"/>
      </g>
    </g>
  </g>
</svg>
